<svg xmlns="http://www.w3.org/2000/svg" viewBox="0 0 83.06 17.75"><defs><style>.a,.b{fill:#006cff;}.a{fill-rule:evenodd;}</style></defs><title>Asset 1</title><path class="a" d="M0,0V17.26H12.3V12.33H4.92V4.93H12.3V0ZM16,0V9.86H20.9V4.93h4.92V0ZM52,7.88v9.87h4.91V12.81h4.92V7.88Z"/><rect class="b" x="23.94" y="6.71" width="17.26" height="4.82" transform="translate(23.46 41.69) rotate(-90)"/><rect class="b" x="30.65" y="6.71" width="17.26" height="4.82" transform="translate(30.17 48.4) rotate(-90)"/><rect class="b" x="37.36" y="6.71" width="17.26" height="4.82" transform="translate(36.88 55.11) rotate(-90)"/><rect class="b" x="34.96" y="-0.14" width="3.7" height="4.96" transform="translate(34.48 39.15) rotate(-90)"/><rect class="b" x="42.32" y="13.42" width="3.7" height="4.96" transform="translate(28.27 60.07) rotate(-90)"/><path class="a" d="M64.83.48V17.75H83.06V.48Zm13,12.3H70V5.45h7.85Z"/></svg>